<svg width="133" height="30" viewBox="0 0 133 30" fill="none" xmlns="http://www.w3.org/2000/svg">
<path d="M28.7627 24.1658C28.3465 24.1658 27.9935 24.0506 27.6999 23.8164C27.4063 23.5823 27.2577 23.3036 27.2577 22.9729V10.6689L19.4762 23.3817C19.1492 23.9168 18.5732 24.1881 17.7519 24.1992C16.9307 24.2066 16.3547 23.9354 16.0277 23.3817L8.24244 10.6689V22.9729C8.24244 23.2999 8.0938 23.5823 7.80023 23.8164C7.50666 24.0506 7.14991 24.1658 6.73743 24.1658H5.8307L5.80469 5.68936H7.12762C7.69989 5.68936 8.10495 5.89003 8.34649 6.28765L17.7631 22.0067L27.1536 6.28765C27.3952 5.89003 27.8039 5.68936 28.3725 5.68936H29.6954L29.6694 24.1658H28.7627Z" fill="white"/>
<path d="M57.5852 6.80418C57.5852 7.1312 57.4625 7.41362 57.221 7.64773C56.9794 7.88185 56.6859 7.99705 56.3403 7.99705H40.179C40.0043 7.99705 39.8594 7.93759 39.7368 7.81496C39.6141 7.69604 39.5547 7.5474 39.5547 7.37274V5.68564H57.5852V6.80047V6.80418Z" fill="white"/>
<path d="M57.5852 23.0435C57.5852 23.3705 57.4625 23.6529 57.221 23.8871C56.9794 24.1212 56.6859 24.2364 56.3403 24.2364H40.179C40.0043 24.2364 39.8594 24.1769 39.7368 24.0543C39.6141 23.9354 39.5547 23.7867 39.5547 23.6121V21.925H57.5852V23.0398V23.0435Z" fill="white"/>
<path d="M57.5852 14.883C57.5852 15.21 57.4625 15.4924 57.221 15.7265C56.9794 15.9606 56.6859 16.0758 56.3403 16.0758H40.179C40.0043 16.0758 39.8594 16.0164 39.7368 15.8938C39.6141 15.7748 39.5547 15.6262 39.5547 15.4515V13.7644H57.5852V14.8793V14.883Z" fill="white"/>
<path d="M80.3779 15.9866C82.0724 17.9933 83.4697 19.6544 84.5659 20.9662C85.6622 22.2817 86.5689 23.3519 87.2749 24.1843H84.9673C84.6737 24.1843 84.5027 24.1509 84.5027 24.1509L84.2278 24.0877C84.1348 24.0654 84.0494 24.0208 83.9825 23.9502C83.8784 23.8276 83.6703 23.586 83.3582 23.2219C81.593 21.1483 78.8877 17.9636 75.2385 13.6752H80.0137C80.2887 13.6567 80.4373 13.6567 80.4559 13.6752C81.3032 13.6567 82.0204 13.3779 82.6075 12.8317C83.1947 12.2854 83.4994 11.6165 83.5143 10.8213C83.4957 10.026 83.1947 9.35714 82.6075 8.81087C82.0204 8.2646 81.3032 7.99333 80.4559 7.99333H69.1701C68.6871 7.99333 68.2783 7.83354 67.9513 7.51395C67.6243 7.19437 67.457 6.80047 67.457 6.33224V5.65591H80.3259C81.8457 5.62246 83.1575 6.10927 84.2575 7.12005C85.3537 8.13083 85.9149 9.36457 85.9297 10.8176C85.9111 12.252 85.3686 13.482 84.2946 14.5002C83.2207 15.5221 81.9163 16.0127 80.3779 15.9792V15.9866Z" fill="white"/>
<path d="M99.3023 24.1843H98.0574C97.7118 24.1843 97.4182 24.0691 97.1767 23.835C96.9351 23.6009 96.8125 23.3222 96.8125 22.9915V5.68936H98.0574C98.403 5.68936 98.6966 5.80456 98.9381 6.03867C99.1797 6.27279 99.3023 6.55521 99.3023 6.88223V24.1843Z" fill="white"/>
<path d="M70.9859 24.1843H69.741C69.3954 24.1843 69.1018 24.0691 68.8603 23.835C68.6187 23.6009 68.4961 23.3222 68.4961 22.9915V13.7161H69.741C70.0866 13.7161 70.3801 13.8313 70.6217 14.0654C70.8632 14.2995 70.9859 14.5819 70.9859 14.909V24.1843Z" fill="white"/>
<path d="M125.429 5.68936C125.756 5.68936 126.043 5.80456 126.284 6.03867C126.526 6.27279 126.648 6.55521 126.648 6.88223V7.99705H110.487C110.141 7.99705 109.848 7.88185 109.606 7.64774C109.365 7.41363 109.242 7.13492 109.242 6.80419V5.68936H125.429ZM117.956 24.1843C117.611 24.1843 117.317 24.0691 117.076 23.835C116.834 23.6009 116.712 23.3222 116.712 22.9915V11.1371H117.956C118.283 11.1371 118.573 11.2523 118.826 11.4865C119.075 11.7206 119.201 12.0104 119.201 12.356V24.1843H117.956Z" fill="white"/>
</svg>
